- 
http://www.Speed.Cd 
       
http://www.Speed.Cd      fast  and The Hottest Private Tracker on the net

(((--Submit for invite!!--)))

Please Seed back to make the speed Faster!!!

------------------nfo--------------------------
-[img]http://img812.imageshack.us/img812/9212/friendswithbenefits.jpg[/img]


[color=blue][size=4][b]Friends.with.Benefits.2011.R5.DVDRip.XVID.AC3-5.1.HQ.Hive-CM8[/b][/size][/color]


[b]Thx Hive

CM8 Doing It Right The First Time :D


Sources:
Video: Russian DVD-9
Seks.po.druzhbe.2011.DVD9
Audio: Imagines V2 Line
thx

Encode:

DVD was very nice, just the red colour is moving slightly from scene to scene. 
tried to find a good middleway.
added brightness,sharpness,rgb,denoise
The Line was already good, still cleaned it through and entered it back into the russian 5.1 audio track.
enjoy

Video: 720x304 @bitrate 1800 2pass
Audio: English AC3 5.1 @384
Sample: yes included[/b]


[url]http://www.imdb.com/title/tt1632708/[/url]


General
Complete name                    : Friends.with.Benefits.2011.R5.DVDRip.XVID.AC3-5.1.HQ.Hive-CM8.avi
Format                           : AVI
Format/Info                      : Audio Video Interleave
File size                        : 1.61 GiB
Duration                         : 1h 44mn
Overall bit rate                 : 2 193 Kbps
Writing application              : Nandub v1.0rc2
Writing library                  : Nandub build 1853/release

Video
ID                               : 0
Format                           : MPEG-4 Visual
Format profile                   : Advanced Simple@L5
Format settings, BVOP            : 1
Format settings, QPel            : Yes
Format settings, GMC             : No warppoints
Format settings, Matrix          : Default (H.263)
Muxing mode                      : Packed bitstream
Codec ID                         : XVID
Codec ID/Hint                    : XviD
Duration                         : 1h 44mn
Bit rate                         : 1 800 Kbps
Width                            : 720 pixels
Height                           : 304 pixels
Display aspect ratio             : 2.35:1
Frame rate                       : 25.000 fps
Color space                      : YUV
Chroma subsampling               : 4:2:0
Bit depth                        : 8 bits
Scan type                        : Progressive
Compression mode                 : Lossy
Bits/(Pixel*Frame)               : 0.329
Stream size                      : 1.32 GiB (82%)
Writing library                  : XviD 1.2.1 (UTC 2008-12-04)

Audio
ID                               : 1
Format                           : AC-3
Format/Info                      : Audio Coding 3
Mode extension                   : CM (complete main)
Codec ID                         : 2000
Duration                         : 1h 44mn
Bit rate mode                    : Constant
Bit rate                         : 384 Kbps
Channel(s)                       : 6 channels
Channel positions                : Front: L C R, Side: L R, LFE
Sampling rate                    : 48.0 KHz
Bit depth                        : 16 bits
Compression mode                 : Lossy
Stream size                      : 288 MiB (18%)
Alignment                        : Split accross interleaves
Interleave, duration             : 40 ms (1.00 video frame)
Interleave, preload duration     : 500 ms


Justin Timberlake	... 	Dylan
Mila Kunis	... 	Jamie
Patricia Clarkson	... 	Lorna
Jenna Elfman	... 	Annie
Bryan Greenberg	... 	Parker
Richard Jenkins	... 	Mr. Harper
Woody Harrelson	... 	Tommy


While trying to avoid the clichs of Hollywood romantic comedies, Dylan and Jamie 
soon discover however that adding the act of sex to their friendship does lead to complications.  


[img]http://img21.imageshack.us/img21/1010/77424989.png[/img]


cover+label:

[url]http://img153.imageshack.us/img153/7554/maxfrontbackcover.jpg[/url]

[url]http://img696.imageshack.us/img696/3614/friendswithbenefitsdvdl.jpg[/url]





Greetz

ViSiON,SiC,SANTi,3LT0N,YanKeeS,MAGNET,THC,T0XiC,LKRG,FANTASIA-PLAY,FANTASIA-M,BHRG,IMAGiNE,WBZ,FLAWL3SS,NOVA,
D2U,Vik,Rapeseed,SAFC,goldadvance,MEMORY100,scumbag,Hero5,KaN1vE,Unevano,Pinnz,Wayne,cedrict wink,
Mr Hive and all P2P groups
Great Work Guys :D

FYS

LOOKING FOR ANYTHING YOU WANT TO LOOK AND SOUND BETTER

CM8@hushmail.com